[MidiTrack([
  MetaMessage('set_tempo', tempo=600000, time=0),
  MetaMessage('time_signature', numerator=4, denominator=4, clocks_per_click=24, notated_32nd_notes_per_beat=8, time=0),
  Message('program_change', channel=0, program=0, time=0),
  Message('note_on', channel=0, note=74, velocity=120, time=0),
  Message('note_off', channel=0, note=74, velocity=64, time=480),
  Message('note_on', channel=0, note=74, velocity=120, time=0),
  Message('note_off', channel=0, note=74, velocity=64, time=480),
  Message('note_on', channel=0, note=74, velocity=122, time=0),
  Message('note_off', channel=0, note=74, velocity=64, time=960),
  Message('note_on', channel=0, note=81, velocity=124, time=0),
  Message('note_off', channel=0, note=81, velocity=64, time=960),
  Message('note_on', channel=0, note=80, velocity=120, time=0),
  Message('note_off', channel=0, note=80, velocity=64, time=480),
  Message('note_on', channel=0, note=79, velocity=118, time=0),
  Message('note_off', channel=0, note=79, velocity=64, time=480),
  Message('note_on', channel=0, note=77, velocity=118, time=0),
  Message('note_off', channel=0, note=77, velocity=64, time=960),
  Message('note_on', channel=0, note=74, velocity=120, time=0),
  Message('note_off', channel=0, note=74, velocity=64, time=480),
  Message('note_on', channel=0, note=77, velocity=120, time=0),
  Message('note_off', channel=0, note=77, velocity=64, time=480),
  Message('note_on', channel=0, note=79, velocity=122, time=0),
  Message('note_off', channel=0, note=79, velocity=64, time=960),
  Message('note_on', channel=0, note=72, velocity=116, time=0),
  Message('note_off', channel=0, note=72, velocity=64, time=480),
  Message('note_on', channel=0, note=72, velocity=116, time=0),
  Message('note_off', channel=0, note=72, velocity=64, time=480),
  Message('note_on', channel=0, note=74, velocity=120, time=0),
  Message('note_off', channel=0, note=74, velocity=64, time=960),
  Message('note_on', channel=0, note=81, velocity=124, time=0),
  Message('note_off', channel=0, note=81, velocity=64, time=960),
  Message('note_on', channel=0, note=80, velocity=120, time=0),
  Message('note_off', channel=0, note=80, velocity=64, time=480),
  Message('note_on', channel=0, note=79, velocity=118, time=0),
  Message('note_off', channel=0, note=79, velocity=64, time=480),
  Message('note_on', channel=0, note=77, velocity=118, time=0),
  Message('note_off', channel=0, note=77, velocity=64, time=960),
  Message('note_on', channel=0, note=74, velocity=120, time=0),
  Message('note_off', channel=0, note=74, velocity=64, time=480),
  Message('note_on', channel=0, note=77, velocity=120, time=0),
  Message('note_off', channel=0, note=77, velocity=64, time=480),
  Message('note_on', channel=0, note=79, velocity=122, time=0),
  Message('note_off', channel=0, note=79, velocity=64, time=960),
  Message('note_on', channel=0, note=83, velocity=124, time=0),
  Message('note_off', channel=0, note=83, velocity=64, time=480),
  Message('note_on', channel=0, note=83, velocity=124, time=0),
  Message('note_off', channel=0, note=83, velocity=64, time=480),
  Message('note_on', channel=0, note=74, velocity=120, time=0),
  Message('note_off', channel=0, note=74, velocity=64, time=960),
  Message('note_on', channel=0, note=81, velocity=124, time=0),
  Message('note_off', channel=0, note=81, velocity=64, time=960),
  Message('note_on', channel=0, note=80, velocity=120, time=0),
  Message('note_off', channel=0, note=80, velocity=64, time=480),
  Message('note_on', channel=0, note=79, velocity=118, time=0),
  Message('note_off', channel=0, note=79, velocity=64, time=480),
  Message('note_on', channel=0, note=77, velocity=118, time=0),
  Message('note_off', channel=0, note=77, velocity=64, time=960),
  Message('note_on', channel=0, note=74, velocity=120, time=0),
  Message('note_off', channel=0, note=74, velocity=64, time=480),
  Message('note_on', channel=0, note=77, velocity=120, time=0),
  Message('note_off', channel=0, note=77, velocity=64, time=480),
  Message('note_on', channel=0, note=79, velocity=122, time=0),
  Message('note_off', channel=0, note=79, velocity=64, time=960),
  Message('note_on', channel=0, note=82, velocity=124, time=0),
  Message('note_off', channel=0, note=82, velocity=64, time=960),
  Message('note_on', channel=0, note=82, velocity=124, time=0),
  Message('note_off', channel=0, note=82, velocity=64, time=480),
  Message('note_on', channel=0, note=74, velocity=120, time=0),
  Message('note_off', channel=0, note=74, velocity=64, time=960),
  Message('note_on', channel=0, note=81, velocity=124, time=0),
  Message('note_off', channel=0, note=81, velocity=64, time=960),
  Message('note_on', channel=0, note=80, velocity=120, time=0),
  Message('note_off', channel=0, note=80, velocity=64, time=480),
  Message('note_on', channel=0, note=79, velocity=118, time=0),
  Message('note_off', channel=0, note=79, velocity=64, time=480),
  Message('note_on', channel=0, note=77, velocity=118, time=0),
  Message('note_off', channel=0, note=77, velocity=64, time=960),
  Message('note_on', channel=0, note=74, velocity=120, time=0),
  Message('note_off', channel=0, note=74, velocity=64, time=480),
  Message('note_on', channel=0, note=77, velocity=120, time=0),
  Message('note_off', channel=0, note=77, velocity=64, time=480),
  Message('note_on', channel=0, note=79, velocity=122, time=0),
  Message('note_off', channel=0, note=79, velocity=64, time=960),
  Message('note_on', channel=0, note=77, velocity=118, time=0),
  Message('note_off', channel=0, note=77, velocity=64, time=480),
  Message('note_on', channel=0, note=77, velocity=118, time=0),
  Message('note_off', channel=0, note=77, velocity=64, time=480),
  Message('note_on', channel=0, note=77, velocity=118, time=0),
  Message('note_off', channel=0, note=77, velocity=64, time=480),
  Message('note_on', channel=0, note=77, velocity=118, time=0),
  Message('note_off', channel=0, note=77, velocity=64, time=960),
  Message('note_on', channel=0, note=74, velocity=120, time=0),
  Message('note_off', channel=0, note=74, velocity=64, time=480),
  Message('note_on', channel=0, note=74, velocity=120, time=0),
  Message('note_off', channel=0, note=74, velocity=64, time=480),
  Message('note_on', channel=0, note=74, velocity=120, time=0),
  Message('note_off', channel=0, note=74, velocity=64, time=960),
  Message('note_on', channel=0, note=77, velocity=120, time=0),
  Message('note_off', channel=0, note=77, velocity=64, time=480),
  Message('note_on', channel=0, note=77, velocity=120, time=0),
  Message('note_off', channel=0, note=77, velocity=64, time=480),
  Message('note_on', channel=0, note=77, velocity=120, time=0),
  Message('note_off', channel=0, note=77, velocity=64, time=960),
  Message('note_on', channel=0, note=79, velocity=122, time=0),
  Message('note_off', channel=0, note=79, velocity=64, time=480),
  Message('note_on', channel=0, note=80, velocity=124, time=0),
  Message('note_off', channel=0, note=80, velocity=64, time=480),
  Message('note_on', channel=0, note=79, velocity=120, time=0),
  Message('note_off', channel=0, note=79, velocity=64, time=480),
  Message('note_on', channel=0, note=77, velocity=118, time=0),
  Message('note_off', channel=0, note=77, velocity=64, time=960),
  Message('note_on', channel=0, note=74, velocity=120, time=0),
  Message('note_off', channel=0, note=74, velocity=64, time=480),
  Message('note_on', channel=0, note=77, velocity=120, time=0),
  Message('note_off', channel=0, note=77, velocity=64, time=480),
  Message('note_on', channel=0, note=79, velocity=122, time=0),
  Message('note_off', channel=0, note=79, velocity=64, time=960),
  Message('note_on', channel=0, note=77, velocity=118, time=0),
  Message('note_off', channel=0, note=77, velocity=64, time=480),
  Message('note_on', channel=0, note=77, velocity=118, time=0),
  Message('note_off', channel=0, note=77, velocity=64, time=480),
  Message('note_on', channel=0, note=77, velocity=118, time=0),
  Message('note_off', channel=0, note=77, velocity=64, time=480),
  Message('note_on', channel=0, note=79, velocity=122, time=0),
  Message('note_off', channel=0, note=79, velocity=64, time=480),
  Message('note_on', channel=0, note=80, velocity=124, time=0),
  Message('note_off', channel=0, note=80, velocity=64, time=480),
  Message('note_on', channel=0, note=81, velocity=124, time=0),
  Message('note_off', channel=0, note=81, velocity=64, time=960),
  Message('note_on', channel=0, note=72, velocity=116, time=0),
  Message('note_off', channel=0, note=72, velocity=64, time=480),
  Message('note_on', channel=0, note=81, velocity=124, time=0),
  Message('note_off', channel=0, note=81, velocity=64, time=1440),
  Message('note_on', channel=0, note=74, velocity=120, time=0),
  Message('note_off', channel=0, note=74, velocity=64, time=480),
  Message('note_on', channel=0, note=74, velocity=120, time=0),
  Message('note_off', channel=0, note=74, velocity=64, time=480),
  Message('note_on', channel=0, note=74, velocity=120, time=0),
  Message('note_off', channel=0, note=74, velocity=64, time=960),
  Message('note_on', channel=0, note=81, velocity=124, time=0),
  Message('note_off', channel=0, note=81, velocity=64, time=960),
  Message('note_on', channel=0, note=74, velocity=120, time=0),
  Message('note_off', channel=0, note=74, velocity=64, time=480),
  Message('note_on', channel=0, note=72, velocity=116, time=0),
  Message('note_off', channel=0, note=72, velocity=64, time=480),
  Message('note_on', channel=0, note=81, velocity=124, time=0),
  Message('note_off', channel=0, note=81, velocity=64, time=960),
  Message('note_on', channel=0, note=81, velocity=124, time=0),
  Message('note_off', channel=0, note=81, velocity=64, time=480),
  Message('note_on', channel=0, note=81, velocity=124, time=0),
  Message('note_off', channel=0, note=81, velocity=64, time=480),
  Message('note_on', channel=0, note=81, velocity=124, time=0),
  Message('note_off', channel=0, note=81, velocity=64, time=960),
  Message('note_on', channel=0, note=79, velocity=120, time=0),
  Message('note_off', channel=0, note=79, velocity=64, time=480),
  Message('note_on', channel=0, note=79, velocity=120, time=0),
  Message('note_off', channel=0, note=79, velocity=64, time=480),
  Message('note_on', channel=0, note=79, velocity=120, time=0),
  Message('note_off', channel=0, note=79, velocity=64, time=960),
  Message('note_on', channel=0, note=81, velocity=124, time=0),
  Message('note_off', channel=0, note=81, velocity=64, time=480),
  Message('note_on', channel=0, note=81, velocity=124, time=0),
  Message('note_off', channel=0, note=81, velocity=64, time=480),
  Message('note_on', channel=0, note=81, velocity=124, time=0),
  Message('note_off', channel=0, note=81, velocity=64, time=960),
  Message('note_on', channel=0, note=81, velocity=124, time=0),
  Message('note_off', channel=0, note=81, velocity=64, time=480),
  Message('note_on', channel=0, note=79, velocity=120, time=0),
  Message('note_off', channel=0, note=79, velocity=64, time=480),
  Message('note_on', channel=0, note=81, velocity=124, time=0),
  Message('note_off', channel=0, note=81, velocity=64, time=960),
  Message('note_on', channel=0, note=72, velocity=116, time=0),
  Message('note_off', channel=0, note=72, velocity=64, time=480),
  Message('note_on', channel=0, note=81, velocity=124, time=0),
  Message('note_off', channel=0, note=81, velocity=64, time=960),
  Message('note_on', channel=0, note=79, velocity=120, time=0),
  Message('note_off', channel=0, note=79, velocity=64, time=480),
  Message('note_on', channel=0, note=74, velocity=120, time=0),
  Message('note_off', channel=0, note=74, velocity=64, time=480),
  Message('note_on', channel=0, note=81, velocity=124, time=0),
  Message('note_off', channel=0, note=81, velocity=64, time=960),
  Message('note_on', channel=0, note=79, velocity=120, time=0),
  Message('note_off', channel=0, note=79, velocity=64, time=480),
  Message('note_on', channel=0, note=77, velocity=118, time=0),
  Message('note_off', channel=0, note=77, velocity=64, time=480),
  Message('note_on', channel=0, note=72, velocity=116, time=0),
  Message('note_off', channel=0, note=72, velocity=64, time=480),
  Message('note_on', channel=0, note=79, velocity=120, time=0),
  Message('note_off', channel=0, note=79, velocity=64, time=960),
  Message('note_on', channel=0, note=77, velocity=118, time=0),
  Message('note_off', channel=0, note=77, velocity=64, time=480),
  Message('note_on', channel=0, note=76, velocity=118, time=0),
  Message('note_off', channel=0, note=76, velocity=64, time=960),
  Message('note_on', channel=0, note=74, velocity=120, time=0),
  Message('note_off', channel=0, note=74, velocity=64, time=480),
  Message('note_on', channel=0, note=74, velocity=120, time=0),
  Message('note_off', channel=0, note=74, velocity=64, time=480),
  Message('note_on', channel=0, note=74, velocity=120, time=0),
  Message('note_off', channel=0, note=74, velocity=64, time=480),
  Message('note_on', channel=0, note=74, velocity=120, time=0),
  Message('note_off', channel=0, note=74, velocity=64, time=960),
  Message('note_on', channel=0, note=77, velocity=120, time=0),
  Message('note_off', channel=0, note=77, velocity=64, time=960),
  Message('note_on', channel=0, note=72, velocity=116, time=0),
  Message('note_off', channel=0, note=72, velocity=64, time=480),
  Message('note_on', channel=0, note=77, velocity=120, time=0),
  Message('note_off', channel=0, note=77, velocity=64, time=960),
  Message('note_on', channel=0, note=74, velocity=120, time=0),
  Message('note_off', channel=0, note=74, velocity=64, time=480),
  Message('note_on', channel=0, note=77, velocity=120, time=0),
  Message('note_off', channel=0, note=77, velocity=64, time=480),
  Message('note_on', channel=0, note=79, velocity=122, time=0),
  Message('note_off', channel=0, note=79, velocity=64, time=960),
  Message('note_on', channel=0, note=80, velocity=124, time=0),
  Message('note_off', channel=0, note=80, velocity=64, time=480),
  Message('note_on', channel=0, note=79, velocity=120, time=0),
  Message('note_off', channel=0, note=79, velocity=64, time=480),
  Message('note_on', channel=0, note=77, velocity=118, time=0),
  Message('note_off', channel=0, note=77, velocity=64, time=1440),
  MetaMessage('end_of_track', time=0)]), MidiTrack([
  Message('program_change', channel=1, program=32, time=0),
  Message('note_on', channel=1, note=38, velocity=97, time=0),
  Message('note_off', channel=1, note=38, velocity=64, time=480),
  Message('note_on', channel=1, note=50, velocity=109, time=0),
  Message('note_off', channel=1, note=50, velocity=64, time=480),
  Message('note_on', channel=1, note=38, velocity=97, time=0),
  Message('note_off', channel=1, note=38, velocity=64, time=480),
  Message('note_on', channel=1, note=50, velocity=116, time=0),
  Message('note_off', channel=1, note=50, velocity=64, time=480),
  Message('note_on', channel=1, note=38, velocity=101, time=0),
  Message('note_off', channel=1, note=38, velocity=64, time=480),
  Message('note_on', channel=1, note=50, velocity=117, time=0),
  Message('note_off', channel=1, note=50, velocity=64, time=480),
  Message('note_on', channel=1, note=38, velocity=114, time=0),
  Message('note_off', channel=1, note=38, velocity=64, time=960),
  Message('note_on', channel=1, note=38, velocity=115, time=0),
  Message('note_off', channel=1, note=38, velocity=64, time=480),
  Message('note_on', channel=1, note=50, velocity=67, time=0),
  Message('note_off', channel=1, note=50, velocity=64, time=480),
  Message('note_on', channel=1, note=38, velocity=84, time=0),
  Message('note_off', channel=1, note=38, velocity=64, time=480),
  Message('note_on', channel=1, note=50, velocity=70, time=0),
  Message('note_off', channel=1, note=50, velocity=64, time=480),
  Message('note_on', channel=1, note=38, velocity=123, time=0),
  Message('note_off', channel=1, note=38, velocity=64, time=480),
  Message('note_on', channel=1, note=50, velocity=104, time=0),
  Message('note_off', channel=1, note=50, velocity=64, time=480),
  Message('note_on', channel=1, note=38, velocity=49, time=0),
  Message('note_off', channel=1, note=38, velocity=64, time=960),
  Message('note_on', channel=1, note=34, velocity=116, time=0),
  Message('note_off', channel=1, note=34, velocity=64, time=480),
  Message('note_on', channel=1, note=46, velocity=95, time=0),
  Message('note_off', channel=1, note=46, velocity=64, time=480),
  Message('note_on', channel=1, note=34, velocity=116, time=0),
  Message('note_off', channel=1, note=34, velocity=64, time=480),
  Message('note_on', channel=1, note=46, velocity=104, time=0),
  Message('note_off', channel=1, note=46, velocity=64, time=480),
  Message('note_on', channel=1, note=34, velocity=51, time=0),
  Message('note_off', channel=1, note=34, velocity=64, time=480),
  Message('note_on', channel=1, note=46, velocity=95, time=0),
  Message('note_off', channel=1, note=46, velocity=64, time=480),
  Message('note_on', channel=1, note=34, velocity=110, time=0),
  Message('note_off', channel=1, note=34, velocity=64, time=960),
  Message('note_on', channel=1, note=36, velocity=48, time=0),
  Message('note_off', channel=1, note=36, velocity=64, time=480),
  Message('note_on', channel=1, note=48, velocity=116, time=0),
  Message('note_off', channel=1, note=48, velocity=64, time=480),
  Message('note_on', channel=1, note=36, velocity=51, time=0),
  Message('note_off', channel=1, note=36, velocity=64, time=480),
  Message('note_on', channel=1, note=48, velocity=115, time=0),
  Message('note_off', channel=1, note=48, velocity=64, time=480),
  Message('note_on', channel=1, note=36, velocity=125, time=0),
  Message('note_off', channel=1, note=36, velocity=64, time=480),
  Message('note_on', channel=1, note=48, velocity=97, time=0),
  Message('note_off', channel=1, note=48, velocity=64, time=480),
  Message('note_on', channel=1, note=36, velocity=109, time=0),
  Message('note_off', channel=1, note=36, velocity=64, time=960),
  Message('note_on', channel=1, note=33, velocity=97, time=0),
  Message('note_off', channel=1, note=33, velocity=64, time=480),
  Message('note_on', channel=1, note=45, velocity=116, time=0),
  Message('note_off', channel=1, note=45, velocity=64, time=480),
  Message('note_on', channel=1, note=33, velocity=101, time=0),
  Message('note_off', channel=1, note=33, velocity=64, time=480),
  Message('note_on', channel=1, note=45, velocity=117, time=0),
  Message('note_off', channel=1, note=45, velocity=64, time=480),
  Message('note_on', channel=1, note=33, velocity=114, time=0),
  Message('note_off', channel=1, note=33, velocity=64, time=480),
  Message('note_on', channel=1, note=45, velocity=115, time=0),
  Message('note_off', channel=1, note=45, velocity=64, time=480),
  Message('note_on', channel=1, note=33, velocity=67, time=0),
  Message('note_off', channel=1, note=33, velocity=64, time=960),
  Message('note_on', channel=1, note=38, velocity=84, time=0),
  Message('note_off', channel=1, note=38, velocity=64, time=480),
  Message('note_on', channel=1, note=50, velocity=70, time=0),
  Message('note_off', channel=1, note=50, velocity=64, time=480),
  Message('note_on', channel=1, note=38, velocity=123, time=0),
  Message('note_off', channel=1, note=38, velocity=64, time=480),
  Message('note_on', channel=1, note=50, velocity=104, time=0),
  Message('note_off', channel=1, note=50, velocity=64, time=480),
  Message('note_on', channel=1, note=38, velocity=49, time=0),
  Message('note_off', channel=1, note=38, velocity=64, time=480),
  Message('note_on', channel=1, note=50, velocity=116, time=0),
  Message('note_off', channel=1, note=50, velocity=64, time=480),
  Message('note_on', channel=1, note=38, velocity=95, time=0),
  Message('note_off', channel=1, note=38, velocity=64, time=960),
  Message('note_on', channel=1, note=38, velocity=116, time=0),
  Message('note_off', channel=1, note=38, velocity=64, time=480),
  Message('note_on', channel=1, note=50, velocity=104, time=0),
  Message('note_off', channel=1, note=50, velocity=64, time=480),
  Message('note_on', channel=1, note=38, velocity=51, time=0),
  Message('note_off', channel=1, note=38, velocity=64, time=480),
  Message('note_on', channel=1, note=50, velocity=95, time=0),
  Message('note_off', channel=1, note=50, velocity=64, time=480),
  Message('note_on', channel=1, note=38, velocity=110, time=0),
  Message('note_off', channel=1, note=38, velocity=64, time=480),
  Message('note_on', channel=1, note=50, velocity=48, time=0),
  Message('note_off', channel=1, note=50, velocity=64, time=480),
  Message('note_on', channel=1, note=38, velocity=116, time=0),
  Message('note_off', channel=1, note=38, velocity=64, time=960),
  Message('note_on', channel=1, note=34, velocity=51, time=0),
  Message('note_off', channel=1, note=34, velocity=64, time=480),
  Message('note_on', channel=1, note=46, velocity=115, time=0),
  Message('note_off', channel=1, note=46, velocity=64, time=480),
  Message('note_on', channel=1, note=34, velocity=125, time=0),
  Message('note_off', channel=1, note=34, velocity=64, time=480),
  Message('note_on', channel=1, note=46, velocity=97, time=0),
  Message('note_off', channel=1, note=46, velocity=64, time=480),
  Message('note_on', channel=1, note=34, velocity=109, time=0),
  Message('note_off', channel=1, note=34, velocity=64, time=480),
  Message('note_on', channel=1, note=46, velocity=97, time=0),
  Message('note_off', channel=1, note=46, velocity=64, time=480),
  Message('note_on', channel=1, note=34, velocity=116, time=0),
  Message('note_off', channel=1, note=34, velocity=64, time=960),
  Message('note_on', channel=1, note=36, velocity=101, time=0),
  Message('note_off', channel=1, note=36, velocity=64, time=480),
  Message('note_on', channel=1, note=48, velocity=117, time=0),
  Message('note_off', channel=1, note=48, velocity=64, time=480),
  Message('note_on', channel=1, note=36, velocity=114, time=0),
  Message('note_off', channel=1, note=36, velocity=64, time=480),
  Message('note_on', channel=1, note=48, velocity=115, time=0),
  Message('note_off', channel=1, note=48, velocity=64, time=480),
  Message('note_on', channel=1, note=36, velocity=67, time=0),
  Message('note_off', channel=1, note=36, velocity=64, time=480),
  Message('note_on', channel=1, note=48, velocity=84, time=0),
  Message('note_off', channel=1, note=48, velocity=64, time=480),
  Message('note_on', channel=1, note=36, velocity=70, time=0),
  Message('note_off', channel=1, note=36, velocity=64, time=960),
  Message('note_on', channel=1, note=33, velocity=123, time=0),
  Message('note_off', channel=1, note=33, velocity=64, time=480),
  Message('note_on', channel=1, note=45, velocity=104, time=0),
  Message('note_off', channel=1, note=45, velocity=64, time=480),
  Message('note_on', channel=1, note=33, velocity=49, time=0),
  Message('note_off', channel=1, note=33, velocity=64, time=480),
  Message('note_on', channel=1, note=45, velocity=116, time=0),
  Message('note_off', channel=1, note=45, velocity=64, time=480),
  Message('note_on', channel=1, note=33, velocity=95, time=0),
  Message('note_off', channel=1, note=33, velocity=64, time=480),
  Message('note_on', channel=1, note=45, velocity=116, time=0),
  Message('note_off', channel=1, note=45, velocity=64, time=480),
  Message('note_on', channel=1, note=33, velocity=104, time=0),
  Message('note_off', channel=1, note=33, velocity=64, time=960),
  Message('note_on', channel=1, note=38, velocity=51, time=0),
  Message('note_off', channel=1, note=38, velocity=64, time=480),
  Message('note_on', channel=1, note=50, velocity=95, time=0),
  Message('note_off', channel=1, note=50, velocity=64, time=480),
  Message('note_on', channel=1, note=38, velocity=110, time=0),
  Message('note_off', channel=1, note=38, velocity=64, time=480),
  Message('note_on', channel=1, note=50, velocity=48, time=0),
  Message('note_off', channel=1, note=50, velocity=64, time=480),
  Message('note_on', channel=1, note=38, velocity=116, time=0),
  Message('note_off', channel=1, note=38, velocity=64, time=480),
  Message('note_on', channel=1, note=50, velocity=51, time=0),
  Message('note_off', channel=1, note=50, velocity=64, time=480),
  Message('note_on', channel=1, note=38, velocity=115, time=0),
  Message('note_off', channel=1, note=38, velocity=64, time=960),
  Message('note_on', channel=1, note=38, velocity=125, time=0),
  Message('note_off', channel=1, note=38, velocity=64, time=480),
  Message('note_on', channel=1, note=50, velocity=97, time=0),
  Message('note_off', channel=1, note=50, velocity=64, time=480),
  Message('note_on', channel=1, note=38, velocity=109, time=0),
  Message('note_off', channel=1, note=38, velocity=64, time=480),
  Message('note_on', channel=1, note=50, velocity=97, time=0),
  Message('note_off', channel=1, note=50, velocity=64, time=480),
  Message('note_on', channel=1, note=38, velocity=116, time=0),
  Message('note_off', channel=1, note=38, velocity=64, time=480),
  Message('note_on', channel=1, note=50, velocity=101, time=0),
  Message('note_off', channel=1, note=50, velocity=64, time=480),
  Message('note_on', channel=1, note=38, velocity=117, time=0),
  Message('note_off', channel=1, note=38, velocity=64, time=960),
  Message('note_on', channel=1, note=34, velocity=114, time=0),
  Message('note_off', channel=1, note=34, velocity=64, time=480),
  Message('note_on', channel=1, note=46, velocity=115, time=0),
  Message('note_off', channel=1, note=46, velocity=64, time=480),
  Message('note_on', channel=1, note=34, velocity=67, time=0),
  Message('note_off', channel=1, note=34, velocity=64, time=480),
  Message('note_on', channel=1, note=46, velocity=84, time=0),
  Message('note_off', channel=1, note=46, velocity=64, time=480),
  Message('note_on', channel=1, note=34, velocity=70, time=0),
  Message('note_off', channel=1, note=34, velocity=64, time=480),
  Message('note_on', channel=1, note=46, velocity=123, time=0),
  Message('note_off', channel=1, note=46, velocity=64, time=480),
  Message('note_on', channel=1, note=34, velocity=104, time=0),
  Message('note_off', channel=1, note=34, velocity=64, time=960),
  Message('note_on', channel=1, note=36, velocity=49, time=0),
  Message('note_off', channel=1, note=36, velocity=64, time=480),
  Message('note_on', channel=1, note=48, velocity=116, time=0),
  Message('note_off', channel=1, note=48, velocity=64, time=480),
  Message('note_on', channel=1, note=36, velocity=95, time=0),
  Message('note_off', channel=1, note=36, velocity=64, time=480),
  Message('note_on', channel=1, note=48, velocity=116, time=0),
  Message('note_off', channel=1, note=48, velocity=64, time=480),
  Message('note_on', channel=1, note=36, velocity=104, time=0),
  Message('note_off', channel=1, note=36, velocity=64, time=480),
  Message('note_on', channel=1, note=48, velocity=51, time=0),
  Message('note_off', channel=1, note=48, velocity=64, time=480),
  Message('note_on', channel=1, note=36, velocity=95, time=0),
  Message('note_off', channel=1, note=36, velocity=64, time=960),
  Message('note_on', channel=1, note=33, velocity=110, time=0),
  Message('note_off', channel=1, note=33, velocity=64, time=480),
  Message('note_on', channel=1, note=45, velocity=48, time=0),
  Message('note_off', channel=1, note=45, velocity=64, time=480),
  Message('note_on', channel=1, note=33, velocity=116, time=0),
  Message('note_off', channel=1, note=33, velocity=64, time=480),
  Message('note_on', channel=1, note=45, velocity=51, time=0),
  Message('note_off', channel=1, note=45, velocity=64, time=480),
  Message('note_on', channel=1, note=33, velocity=115, time=0),
  Message('note_off', channel=1, note=33, velocity=64, time=480),
  Message('note_on', channel=1, note=45, velocity=125, time=0),
  Message('note_off', channel=1, note=45, velocity=64, time=480),
  Message('note_on', channel=1, note=33, velocity=97, time=0),
  Message('note_off', channel=1, note=33, velocity=64, time=960),
  Message('note_on', channel=1, note=38, velocity=109, time=0),
  Message('note_off', channel=1, note=38, velocity=64, time=480),
  Message('note_on', channel=1, note=50, velocity=97, time=0),
  Message('note_off', channel=1, note=50, velocity=64, time=480),
  Message('note_on', channel=1, note=38, velocity=116, time=0),
  Message('note_off', channel=1, note=38, velocity=64, time=480),
  Message('note_on', channel=1, note=50, velocity=101, time=0),
  Message('note_off', channel=1, note=50, velocity=64, time=480),
  Message('note_on', channel=1, note=38, velocity=117, time=0),
  Message('note_off', channel=1, note=38, velocity=64, time=480),
  Message('note_on', channel=1, note=50, velocity=114, time=0),
  Message('note_off', channel=1, note=50, velocity=64, time=480),
  Message('note_on', channel=1, note=38, velocity=115, time=0),
  Message('note_off', channel=1, note=38, velocity=64, time=960),
  Message('note_on', channel=1, note=38, velocity=67, time=0),
  Message('note_off', channel=1, note=38, velocity=64, time=480),
  Message('note_on', channel=1, note=50, velocity=84, time=0),
  Message('note_off', channel=1, note=50, velocity=64, time=480),
  Message('note_on', channel=1, note=38, velocity=70, time=0),
  Message('note_off', channel=1, note=38, velocity=64, time=480),
  Message('note_on', channel=1, note=50, velocity=123, time=0),
  Message('note_off', channel=1, note=50, velocity=64, time=480),
  Message('note_on', channel=1, note=38, velocity=104, time=0),
  Message('note_off', channel=1, note=38, velocity=64, time=480),
  Message('note_on', channel=1, note=50, velocity=49, time=0),
  Message('note_off', channel=1, note=50, velocity=64, time=480),
  Message('note_on', channel=1, note=38, velocity=116, time=0),
  Message('note_off', channel=1, note=38, velocity=64, time=960),
  Message('note_on', channel=1, note=34, velocity=95, time=0),
  Message('note_off', channel=1, note=34, velocity=64, time=480),
  Message('note_on', channel=1, note=46, velocity=116, time=0),
  Message('note_off', channel=1, note=46, velocity=64, time=480),
  Message('note_on', channel=1, note=34, velocity=104, time=0),
  Message('note_off', channel=1, note=34, velocity=64, time=480),
  Message('note_on', channel=1, note=46, velocity=51, time=0),
  Message('note_off', channel=1, note=46, velocity=64, time=480),
  Message('note_on', channel=1, note=34, velocity=95, time=0),
  Message('note_off', channel=1, note=34, velocity=64, time=480),
  Message('note_on', channel=1, note=46, velocity=110, time=0),
  Message('note_off', channel=1, note=46, velocity=64, time=480),
  Message('note_on', channel=1, note=34, velocity=48, time=0),
  Message('note_off', channel=1, note=34, velocity=64, time=960),
  Message('note_on', channel=1, note=36, velocity=116, time=0),
  Message('note_off', channel=1, note=36, velocity=64, time=480),
  Message('note_on', channel=1, note=48, velocity=51, time=0),
  Message('note_off', channel=1, note=48, velocity=64, time=480),
  Message('note_on', channel=1, note=36, velocity=115, time=0),
  Message('note_off', channel=1, note=36, velocity=64, time=480),
  Message('note_on', channel=1, note=48, velocity=125, time=0),
  Message('note_off', channel=1, note=48, velocity=64, time=480),
  Message('note_on', channel=1, note=36, velocity=97, time=0),
  Message('note_off', channel=1, note=36, velocity=64, time=480),
  Message('note_on', channel=1, note=48, velocity=109, time=0),
  Message('note_off', channel=1, note=48, velocity=64, time=480),
  Message('note_on', channel=1, note=36, velocity=97, time=0),
  Message('note_off', channel=1, note=36, velocity=64, time=960),
  Message('note_on', channel=1, note=33, velocity=116, time=0),
  Message('note_off', channel=1, note=33, velocity=64, time=480),
  Message('note_on', channel=1, note=45, velocity=101, time=0),
  Message('note_off', channel=1, note=45, velocity=64, time=480),
  Message('note_on', channel=1, note=33, velocity=117, time=0),
  Message('note_off', channel=1, note=33, velocity=64, time=480),
  Message('note_on', channel=1, note=45, velocity=114, time=0),
  Message('note_off', channel=1, note=45, velocity=64, time=480),
  Message('note_on', channel=1, note=33, velocity=115, time=0),
  Message('note_off', channel=1, note=33, velocity=64, time=480),
  Message('note_on', channel=1, note=45, velocity=67, time=0),
  Message('note_off', channel=1, note=45, velocity=64, time=480),
  Message('note_on', channel=1, note=33, velocity=84, time=0),
  Message('note_off', channel=1, note=33, velocity=64, time=960),
  Message('note_on', channel=1, note=38, velocity=70, time=0),
  Message('note_off', channel=1, note=38, velocity=64, time=480),
  Message('note_on', channel=1, note=50, velocity=123, time=0),
  Message('note_off', channel=1, note=50, velocity=64, time=480),
  Message('note_on', channel=1, note=38, velocity=104, time=0),
  Message('note_off', channel=1, note=38, velocity=64, time=480),
  Message('note_on', channel=1, note=50, velocity=49, time=0),
  Message('note_off', channel=1, note=50, velocity=64, time=480),
  Message('note_on', channel=1, note=38, velocity=116, time=0),
  Message('note_off', channel=1, note=38, velocity=64, time=480),
  Message('note_on', channel=1, note=50, velocity=95, time=0),
  Message('note_off', channel=1, note=50, velocity=64, time=480),
  Message('note_on', channel=1, note=38, velocity=116, time=0),
  Message('note_off', channel=1, note=38, velocity=64, time=960),
  Message('note_on', channel=1, note=38, velocity=104, time=0),
  Message('note_off', channel=1, note=38, velocity=64, time=480),
  Message('note_on', channel=1, note=50, velocity=51, time=0),
  Message('note_off', channel=1, note=50, velocity=64, time=480),
  Message('note_on', channel=1, note=38, velocity=95, time=0),
  Message('note_off', channel=1, note=38, velocity=64, time=480),
  Message('note_on', channel=1, note=50, velocity=110, time=0),
  Message('note_off', channel=1, note=50, velocity=64, time=480),
  Message('note_on', channel=1, note=38, velocity=48, time=0),
  Message('note_off', channel=1, note=38, velocity=64, time=480),
  Message('note_on', channel=1, note=50, velocity=116, time=0),
  Message('note_off', channel=1, note=50, velocity=64, time=480),
  Message('note_on', channel=1, note=38, velocity=51, time=0),
  Message('note_off', channel=1, note=38, velocity=64, time=960),
  Message('note_on', channel=1, note=34, velocity=115, time=0),
  Message('note_off', channel=1, note=34, velocity=64, time=480),
  Message('note_on', channel=1, note=46, velocity=125, time=0),
  Message('note_off', channel=1, note=46, velocity=64, time=480),
  Message('note_on', channel=1, note=34, velocity=97, time=0),
  Message('note_off', channel=1, note=34, velocity=64, time=480),
  Message('note_on', channel=1, note=46, velocity=109, time=0),
  Message('note_off', channel=1, note=46, velocity=64, time=480),
  Message('note_on', channel=1, note=34, velocity=97, time=0),
  Message('note_off', channel=1, note=34, velocity=64, time=480),
  Message('note_on', channel=1, note=46, velocity=116, time=0),
  Message('note_off', channel=1, note=46, velocity=64, time=480),
  Message('note_on', channel=1, note=34, velocity=101, time=0),
  Message('note_off', channel=1, note=34, velocity=64, time=960),
  Message('note_on', channel=1, note=36, velocity=117, time=0),
  Message('note_off', channel=1, note=36, velocity=64, time=480),
  Message('note_on', channel=1, note=48, velocity=114, time=0),
  Message('note_off', channel=1, note=48, velocity=64, time=480),
  Message('note_on', channel=1, note=36, velocity=115, time=0),
  Message('note_off', channel=1, note=36, velocity=64, time=480),
  Message('note_on', channel=1, note=48, velocity=67, time=0),
  Message('note_off', channel=1, note=48, velocity=64, time=480),
  Message('note_on', channel=1, note=36, velocity=84, time=0),
  Message('note_off', channel=1, note=36, velocity=64, time=480),
  Message('note_on', channel=1, note=48, velocity=70, time=0),
  Message('note_off', channel=1, note=48, velocity=64, time=480),
  Message('note_on', channel=1, note=36, velocity=123, time=0),
  Message('note_off', channel=1, note=36, velocity=64, time=960),
  Message('note_on', channel=1, note=33, velocity=104, time=0),
  Message('note_off', channel=1, note=33, velocity=64, time=480),
  Message('note_on', channel=1, note=45, velocity=49, time=0),
  Message('note_off', channel=1, note=45, velocity=64, time=480),
  Message('note_on', channel=1, note=33, velocity=116, time=0),
  Message('note_off', channel=1, note=33, velocity=64, time=480),
  Message('note_on', channel=1, note=45, velocity=95, time=0),
  Message('note_off', channel=1, note=45, velocity=64, time=480),
  Message('note_on', channel=1, note=33, velocity=116, time=0),
  Message('note_off', channel=1, note=33, velocity=64, time=480),
  Message('note_on', channel=1, note=45, velocity=104, time=0),
  Message('note_off', channel=1, note=45, velocity=64, time=480),
  Message('note_on', channel=1, note=33, velocity=51, time=0),
  Message('note_off', channel=1, note=33, velocity=64, time=960),
  MetaMessage('end_of_track', time=0)]), MidiTrack([
  Message('program_change', channel=2, program=4, time=0),
  Message('note_on', channel=2, note=74, velocity=80, time=0),
  Message('note_on', channel=2, note=77, velocity=78, time=0),
  Message('note_on', channel=2, note=81, velocity=78, time=0),
  Message('note_off', channel=2, note=74, velocity=64, time=1920),
  Message('note_off', channel=2, note=77, velocity=64, time=0),
  Message('note_off', channel=2, note=81, velocity=64, time=0),
  Message('note_on', channel=2, note=70, velocity=80, time=0),
  Message('note_on', channel=2, note=74, velocity=78, time=0),
  Message('note_on', channel=2, note=77, velocity=78, time=0),
  Message('note_off', channel=2, note=70, velocity=64, time=1920),
  Message('note_off', channel=2, note=74, velocity=64, time=0),
  Message('note_off', channel=2, note=77, velocity=64, time=0),
  Message('note_on', channel=2, note=72, velocity=80, time=0),
  Message('note_on', channel=2, note=76, velocity=78, time=0),
  Message('note_on', channel=2, note=79, velocity=78, time=0),
  Message('note_off', channel=2, note=72, velocity=64, time=1920),
  Message('note_off', channel=2, note=76, velocity=64, time=0),
  Message('note_off', channel=2, note=79, velocity=64, time=0),
  Message('note_on', channel=2, note=69, velocity=80, time=0),
  Message('note_on', channel=2, note=72, velocity=78, time=0),
  Message('note_on', channel=2, note=76, velocity=78, time=0),
  Message('note_off', channel=2, note=69, velocity=64, time=1920),
  Message('note_off', channel=2, note=72, velocity=64, time=0),
  Message('note_off', channel=2, note=76, velocity=64, time=0),
  Message('note_on', channel=2, note=74, velocity=80, time=0),
  Message('note_on', channel=2, note=77, velocity=78, time=0),
  Message('note_on', channel=2, note=81, velocity=78, time=0),
  Message('note_off', channel=2, note=74, velocity=64, time=1920),
  Message('note_off', channel=2, note=77, velocity=64, time=0),
  Message('note_off', channel=2, note=81, velocity=64, time=0),
  Message('note_on', channel=2, note=70, velocity=80, time=0),
  Message('note_on', channel=2, note=74, velocity=78, time=0),
  Message('note_on', channel=2, note=77, velocity=78, time=0),
  Message('note_off', channel=2, note=70, velocity=64, time=1920),
  Message('note_off', channel=2, note=74, velocity=64, time=0),
  Message('note_off', channel=2, note=77, velocity=64, time=0),
  Message('note_on', channel=2, note=72, velocity=80, time=0),
  Message('note_on', channel=2, note=76, velocity=78, time=0),
  Message('note_on', channel=2, note=79, velocity=78, time=0),
  Message('note_off', channel=2, note=72, velocity=64, time=1920),
  Message('note_off', channel=2, note=76, velocity=64, time=0),
  Message('note_off', channel=2, note=79, velocity=64, time=0),
  Message('note_on', channel=2, note=69, velocity=80, time=0),
  Message('note_on', channel=2, note=72, velocity=78, time=0),
  Message('note_on', channel=2, note=76, velocity=78, time=0),
  Message('note_off', channel=2, note=69, velocity=64, time=1920),
  Message('note_off', channel=2, note=72, velocity=64, time=0),
  Message('note_off', channel=2, note=76, velocity=64, time=0),
  MetaMessage('end_of_track', time=0)])]